<svg xmlns="http://www.w3.org/2000/svg" xmlns:xlink="http://www.w3.org/1999/xlink" viewBox="0 0 800 800"><defs><style>.cls-1{isolation:isolate;}.cls-2,.cls-8{fill:#6d6d6d;}.cls-3{fill:url(#radial-gradient);}.cls-4{fill:url(#radial-gradient-2);}.cls-5{fill:url(#linear-gradient);}.cls-6{opacity:0.5;mix-blend-mode:multiply;fill:url(#radial-gradient-3);}.cls-7{fill:url(#linear-gradient-2);}.cls-8{opacity:0.4;}.cls-9{fill:url(#linear-gradient-3);}.cls-10{fill:url(#linear-gradient-4);}.cls-11{fill:#003bff;}.cls-12{fill:url(#Naamloos_verloop_13);}.cls-13{fill:url(#linear-gradient-5);}.cls-14{fill:url(#linear-gradient-6);}.cls-15,.cls-21,.cls-24,.cls-28,.cls-31{opacity:0.7;}.cls-16{fill:gray;}.cls-17{fill:#b3b3b3;}.cls-18{fill:url(#linear-gradient-7);}.cls-19{fill:#141615;opacity:0.2;}.cls-20{fill:url(#linear-gradient-8);}.cls-21{fill:url(#linear-gradient-9);}.cls-22{fill:url(#linear-gradient-10);}.cls-23{fill:url(#linear-gradient-11);}.cls-24{fill:url(#linear-gradient-12);}.cls-25{fill:url(#Naamloos_verloop_13-2);}.cls-26{fill:url(#Naamloos_verloop_13-3);}.cls-27{fill:url(#linear-gradient-13);}.cls-28{fill:url(#linear-gradient-14);}.cls-29{fill:url(#linear-gradient-15);}.cls-30{fill:url(#linear-gradient-16);}.cls-31{fill:url(#linear-gradient-17);}.cls-32{fill:url(#linear-gradient-18);}.cls-33{opacity:0.8;}.cls-34{fill:url(#linear-gradient-19);}.cls-35{fill-rule:evenodd;}.cls-36{fill:#fff;opacity:0.93;}</style><radialGradient id="radial-gradient" cx="317.25" cy="162.34" r="7.51" gradientUnits="userSpaceOnUse"><stop offset="0" stop-color="#d7d7d7"/><stop offset="1" stop-color="#969696"/></radialGradient><radialGradient id="radial-gradient-2" cx="-1704.77" cy="181.14" r="7.51" gradientTransform="matrix(-1, 0, 0, 1, -1255.72, 0)" xlink:href="#radial-gradient"/><linearGradient id="linear-gradient" x1="392.28" y1="288.93" x2="392.28" y2="231.5" gradientUnits="userSpaceOnUse"><stop offset="0" stop-color="#2e302f"/><stop offset="1" stop-color="#1c1e1d"/></linearGradient><radialGradient id="radial-gradient-3" cx="-12462.31" cy="-28931.08" r="1598.55" gradientTransform="translate(2240.62 864.43) scale(0.15 0.01)" gradientUnits="userSpaceOnUse"><stop offset="0" stop-color="#666"/><stop offset="0.16" stop-color="#707070" stop-opacity="0.93"/><stop offset="0.4" stop-color="#8a8a8a" stop-opacity="0.74"/><stop offset="0.69" stop-color="#b6b6b6" stop-opacity="0.43"/><stop offset="1" stop-color="#f2f2f2" stop-opacity="0"/></radialGradient><linearGradient id="linear-gradient-2" x1="297.14" y1="622.33" x2="297.14" y2="572.46" xlink:href="#radial-gradient"/><linearGradient id="linear-gradient-3" x1="-1616.92" y1="622.33" x2="-1616.92" y2="572.46" gradientTransform="matrix(-1, 0, 0, 1, -1061.6, 0)" xlink:href="#radial-gradient"/><linearGradient id="linear-gradient-4" x1="423.78" y1="589.51" x2="423.78" y2="535.46" xlink:href="#linear-gradient"/><linearGradient id="Naamloos_verloop_13" x1="432.06" y1="246.62" x2="415.06" y2="569.62" gradientUnits="userSpaceOnUse"><stop offset="0" stop-color="#00adff"/><stop offset="1" stop-color="#003bff"/></linearGradient><linearGradient id="linear-gradient-5" x1="423.61" y1="285.15" x2="423.61" y2="532.15" gradientUnits="userSpaceOnUse"><stop offset="0" stop-color="#141615"/><stop offset="1" stop-color="#5b5c5b"/></linearGradient><linearGradient id="linear-gradient-6" x1="423.61" y1="287.15" x2="423.61" y2="538.2" xlink:href="#linear-gradient"/><linearGradient id="linear-gradient-7" x1="574.35" y1="297.15" x2="574.35" y2="560.15" xlink:href="#radial-gradient"/><linearGradient id="linear-gradient-8" x1="392.05" y1="847.37" x2="434.63" y2="847.37" gradientTransform="translate(-135.15 -177.78) rotate(-22.87)" xlink:href="#linear-gradient"/><linearGradient id="linear-gradient-9" x1="394.53" y1="824.8" x2="433.5" y2="871.57" gradientTransform="translate(-135.15 -177.78) rotate(-22.87)" xlink:href="#radial-gradient"/><linearGradient id="linear-gradient-10" x1="398.79" y1="829.91" x2="428.94" y2="866.09" gradientTransform="translate(-135.15 -177.78) rotate(-22.87)" xlink:href="#linear-gradient"/><linearGradient id="linear-gradient-11" x1="414.09" y1="826.08" x2="414.09" y2="869.17" gradientTransform="matrix(1, 0, 0, 1, 161.26, -405.23)" gradientUnits="userSpaceOnUse"><stop offset="0" stop-color="#fbfbfb"/><stop offset="1" stop-color="#969696"/></linearGradient><linearGradient id="linear-gradient-12" x1="392.07" y1="848.19" x2="410.73" y2="848.19" gradientTransform="translate(-135.15 -177.78) rotate(-22.87)" gradientUnits="userSpaceOnUse"><stop offset="0" stop-color="#2e302f" stop-opacity="0"/><stop offset="1" stop-color="#1c1e1d"/></linearGradient><linearGradient id="Naamloos_verloop_13-2" x1="565.58" y1="453.19" x2="585.08" y2="453.19" xlink:href="#Naamloos_verloop_13"/><linearGradient id="Naamloos_verloop_13-3" x1="565.58" y1="429.15" x2="585.08" y2="429.15" xlink:href="#Naamloos_verloop_13"/><linearGradient id="linear-gradient-13" x1="-100.6" y1="1292.71" x2="-55.64" y2="1292.71" gradientTransform="translate(-444.52 -304.26) rotate(-55.49)" xlink:href="#linear-gradient"/><linearGradient id="linear-gradient-14" x1="-97.99" y1="1268.87" x2="-56.83" y2="1318.26" gradientTransform="translate(-444.52 -304.26) rotate(-55.49)" xlink:href="#radial-gradient"/><linearGradient id="linear-gradient-15" x1="-93.49" y1="1274.26" x2="-61.65" y2="1312.48" gradientTransform="translate(-444.52 -304.26) rotate(-55.49)" xlink:href="#linear-gradient"/><linearGradient id="linear-gradient-16" x1="-77.33" y1="1270.23" x2="-77.33" y2="1315.73" gradientTransform="translate(653.3 -800.4)" xlink:href="#linear-gradient-11"/><linearGradient id="linear-gradient-17" x1="-100.59" y1="1293.57" x2="-80.88" y2="1293.57" gradientTransform="translate(-444.52 -304.26) rotate(-55.49)" xlink:href="#linear-gradient-12"/><linearGradient id="linear-gradient-18" x1="309.28" y1="344.14" x2="489.32" y2="524.18" gradientUnits="userSpaceOnUse"><stop offset="0" stop-color="#707e67"/><stop offset="1" stop-color="#9dad93"/></linearGradient><linearGradient id="linear-gradient-19" x1="384.56" y1="460.34" x2="384.56" y2="302.99" gradientUnits="userSpaceOnUse"><stop offset="0" stop-color="#fbfbfb" stop-opacity="0.5"/><stop offset="1" stop-color="#fbfbfb" stop-opacity="0"/></linearGradient></defs><g class="cls-1"><g id="object"><polygon class="cls-2" points="372.81 241.23 364.01 245.98 313.82 159.93 317.71 157.63 372.81 241.23"/><path class="cls-3" d="M324.75,162.35a7.51,7.51,0,1,1-7.5-7.51A7.5,7.5,0,0,1,324.75,162.35Z"/><polygon class="cls-2" points="393.48 260.02 402.28 264.77 452.47 178.72 448.58 176.42 393.48 260.02"/><path class="cls-4" d="M441.54,181.14a7.51,7.51,0,1,0,7.51-7.51A7.5,7.5,0,0,0,441.54,181.14Z"/><path class="cls-5" d="M434.35,257.12c0,13.31-18.83,24.1-42.07,24.1s-42.08-10.79-42.08-24.1S369,233,392.28,233,434.35,243.81,434.35,257.12Z"/><path class="cls-6" d="M655.89,615.62c0-7.62-104-13.79-232.27-13.79S191.33,608,191.33,615.62s104,13.79,232.29,13.79S655.89,623.24,655.89,615.62Z"/><polygon class="cls-7" points="299.18 613.34 284.07 613.34 288.97 571.67 310.21 571.67 299.18 613.34"/><polygon class="cls-8" points="299.18 613.34 293.87 613.34 301.22 571.67 310.21 571.67 299.18 613.34"/><polygon class="cls-9" points="553.28 613.34 568.39 613.34 563.49 571.67 542.25 571.67 553.28 613.34"/><polygon class="cls-8" points="553.28 613.34 558.59 613.34 551.24 571.67 542.25 571.67 553.28 613.34"/><path class="cls-10" d="M266.42,556.15c-.09.6-.14,13.22-.14,13.85,0,6.76,5,12.25,11.09,12.25H570.19c6.12,0,11.09-5.49,11.09-12.25,0-.63-.06-13.25-.14-13.85Z"/><path class="cls-11" d="M640.11,510.25c-5.66,29.16-24.56,48.46-53.79,53.79-44,8-129.74,12.33-173.12,12.14-38.63-.16-116.08-3.55-154-12.14-29-6.56-49.39-24.41-53.79-53.79-3.87-25.82-5.41-76.51-5.21-102.06.16-20.18,1.91-60.88,5.21-80.55,4.91-29.3,24.6-48.28,53.79-53.79C301.1,265.94,372,260.22,409.78,260c44.27-.3,132.58,3.69,176.54,13.88,28.94,6.7,48.34,24.59,53.79,53.79,4.1,21.94,6.91,67.17,6.95,89.65C647.09,440.6,645.35,483.3,640.11,510.25Z"/><path class="cls-12" d="M640.11,502.35c-5.66,29.16-24.56,48.46-53.79,53.79-44,8-129.74,12.34-173.13,12.15-38.62-.17-116.07-3.56-154-12.15-29-6.56-49.39-24.41-53.79-53.79-3.87-25.81-5.41-76.51-5.21-102.06.16-20.18,1.9-60.88,5.21-80.55,4.91-29.3,24.59-48.28,53.79-53.79C301.1,258,372,252.32,409.78,252.07c44.27-.3,132.58,3.69,176.54,13.88,28.94,6.71,48.34,24.59,53.79,53.79,4.1,21.94,6.91,67.17,6.95,89.65C647.09,432.7,645.35,475.4,640.11,502.35Z"/><path d="M413.23,567.51C374,567.34,298.07,564,261.1,555.58c-19-4.3-42.51-15.87-47.12-46.62-3.67-24.42-5.32-74.17-5.11-100.7.17-21.51,2-61,5.08-79.18,4.24-25.22,20.87-41.81,46.85-46.71,41.22-7.78,111.63-13.48,149-13.73h4.67c46,0,129.15,4.24,169.85,13.67,26.68,6.18,42.57,22,47.22,46.93,4.1,21.94,6.76,66.82,6.8,88.08,0,19.33-1.35,63.3-6.78,91.28-5.06,26-21.25,42.25-46.84,46.91-43,7.84-125.62,12-168.79,12Z"/><path class="cls-13" d="M413.24,564c-39-.17-114.67-3.54-151.37-11.85-17.9-4.05-40.14-14.93-44.46-43.74-3.64-24.25-5.28-73.75-5.07-100.17.17-21.38,2-60.61,5-78.63,4-23.68,19.62-39.25,44.06-43.87,41.05-7.74,111.17-13.42,148.42-13.67h4.65c45.86,0,128.64,4.21,169.07,13.58,25.21,5.84,40.21,20.71,44.59,44.19,4.07,21.75,6.71,66.31,6.74,87.44,0,19.23-1.34,62.91-6.72,90.62-4.76,24.5-20,39.77-44.05,44.16C541.4,559.89,459,564,416,564Z"/><path class="cls-14" d="M413.26,553.37c-38.57-.16-113.16-3.46-149-11.58C242.91,537,230.71,525.21,228,506.86c-3.56-23.7-5.16-72.43-5-98.49.17-21,2-59.48,4.9-76.95,3.22-19.22,15.51-31.38,35.52-35.16,40.5-7.64,109.72-13.24,146.51-13.48l4.58,0c45.36,0,127,4.13,166.66,13.31,21,4.87,32.93,16.56,36.52,35.76,3.95,21.16,6.52,64.77,6.55,85.5,0,18.86-1.29,61.65-6.52,88.57-3.9,20.1-15.85,32.11-35.49,35.69-42.13,7.69-123.6,11.79-166.23,11.79Z"/><g class="cls-15"><rect class="cls-16" x="552.87" y="314.98" width="42.97" height="3.74"/><rect class="cls-16" x="552.87" y="322.32" width="42.97" height="3.74"/><rect class="cls-17" x="552.87" y="329.67" width="42.97" height="3.74"/><rect class="cls-16" x="552.87" y="337.01" width="42.97" height="3.74"/><rect class="cls-16" x="552.87" y="344.36" width="42.97" height="3.74"/><rect class="cls-17" x="552.87" y="351.7" width="42.97" height="3.74"/><rect class="cls-16" x="552.87" y="359.05" width="42.97" height="3.74"/><rect class="cls-17" x="552.87" y="366.39" width="42.97" height="3.74"/><rect class="cls-16" x="552.87" y="373.74" width="42.97" height="3.74"/><rect class="cls-17" x="552.87" y="381.08" width="42.97" height="3.74"/><rect class="cls-16" x="552.87" y="388.43" width="42.97" height="3.74"/><rect class="cls-16" x="552.87" y="395.78" width="42.97" height="3.74"/><rect class="cls-17" x="552.87" y="405.34" width="42.97" height="5.61"/></g><g class="cls-15"><path class="cls-18" d="M597.26,523.13H551.45a7.44,7.44,0,0,1-7.47-7.4V311a7.45,7.45,0,0,1,7.47-7.41h45.81a7.45,7.45,0,0,1,7.46,7.41V515.73A7.44,7.44,0,0,1,597.26,523.13ZM551.45,304.79a6.25,6.25,0,0,0-6.26,6.21V515.73a6.25,6.25,0,0,0,6.26,6.21h45.81a6.24,6.24,0,0,0,6.25-6.21V311a6.24,6.24,0,0,0-6.25-6.21Z"/></g><path class="cls-19" d="M593.33,437.19a21.29,21.29,0,1,1-27.89-11.34A21.3,21.3,0,0,1,593.33,437.19Z"/><path class="cls-20" d="M594.6,434.1a21.28,21.28,0,1,1-27.88-11.35A21.28,21.28,0,0,1,594.6,434.1Z"/><path class="cls-2" d="M591.84,435.26a18.29,18.29,0,1,1-24-9.75A18.29,18.29,0,0,1,591.84,435.26Z"/><path class="cls-21" d="M589.63,436.19a15.89,15.89,0,1,1-20.81-8.46A15.89,15.89,0,0,1,589.63,436.19Z"/><path class="cls-22" d="M586.32,437.59A12.3,12.3,0,1,1,570.21,431,12.3,12.3,0,0,1,586.32,437.59Z"/><rect class="cls-23" x="571.96" y="424.16" width="6.75" height="34.18" transform="translate(-126.26 258.27) rotate(-22.87)"/><path class="cls-24" d="M565.58,426.81l-9.94,24.43A21.32,21.32,0,0,0,575,463.66l3.18-7Z"/><path class="cls-25" d="M575.5,450.34l3.36,8,6.22-2.63-3.21-7.61C579.75,448.85,577.63,449.62,575.5,450.34Z"/><path class="cls-26" d="M575.14,432.11l-3.34-7.92-6.22,2.62,3.08,7.3C570.81,433.41,573,432.73,575.14,432.11Z"/><path class="cls-19" d="M585,477.51a22.48,22.48,0,1,1-31.27,5.79A22.48,22.48,0,0,1,585,477.51Z"/><path class="cls-27" d="M589.14,474a22.48,22.48,0,1,1-31.26,5.78A22.48,22.48,0,0,1,589.14,474Z"/><path class="cls-2" d="M587.35,476.64a19.32,19.32,0,1,1-26.86,5A19.32,19.32,0,0,1,587.35,476.64Z"/><path class="cls-28" d="M585.91,478.73a16.78,16.78,0,1,1-23.34,4.32A16.78,16.78,0,0,1,585.91,478.73Z"/><path class="cls-29" d="M583.76,481.86a13,13,0,1,1-18,3.34A13,13,0,0,1,583.76,481.86Z"/><rect class="cls-30" x="572.51" y="473.32" width="7.12" height="36.1" transform="translate(-155.23 687.58) rotate(-55.48)"/><path class="cls-31" d="M559.18,484.08l5.06,27.38a22.5,22.5,0,0,0,24.3,0l-1.16-8Z"/><path class="cls-32" d="M520,488.16c0,24.25-12.75,43-56.93,43.91H297c-29.75-.92-47.93-19.66-47.93-43.91V357.9C249.28,317.15,272.29,307,291,307H470.1c32.18.17,49.93,19.67,49.93,43.92Z"/><g class="cls-33"><path class="cls-34" d="M514,442.67V354c0-23.18-17-41.81-47.71-42H295.19c-17.91,0-39.9,9.72-40.07,48.66v75.6C332.28,391.15,488.28,411.15,514,442.67Z"/></g><path class="cls-35" d="M385.1,485.29c-.09-2.63-.2-5.26-.25-7.89-.14-7-.24-14-.37-21.07q-.32-16.95-.64-33.91c0-2.63-.07-2.64,2.3-3.69,3.38-1.51,6.72-3.09,10.15-4.47a11.75,11.75,0,0,1,3.88-.66c7.89-.33,15.78-.58,23.68-.86,2.07-.07,4.13-.16,6.2-.2a1.91,1.91,0,0,1,1.05.37c1.93,1.52,3.85,3.06,5.73,4.63a2,2,0,0,1,.62,1.11c1.21,8.46,2.38,16.91,3.56,25.37.3,2.15.57,4.31.88,6.46a1.55,1.55,0,0,1-.67,1.61c-2.46,1.92-4.91,3.87-7.31,5.86a4.54,4.54,0,0,1-2.85.82c-.58.05-1.17,0-1.9,0a2.66,2.66,0,0,0,.24.52L445.11,474a1.48,1.48,0,0,0,.27.16v.42c-.22.1-.45.18-.66.3-4.94,2.8-9.88,5.57-14.79,8.41a4.51,4.51,0,0,1-2.69.61c-1.09-.08-2.18-.09-3.25-.23a2.3,2.3,0,0,1-1.36-.59c-4-4.83-8-9.69-12-14.54-.79-1-1.59-1.9-2.48-2.95.16,5.57.32,10.95.47,16.35l-5.44.78c-3.21.46-6.42.92-9.63,1.4-2.62.39-5.23.81-7.85,1.21Zm15.36-36.79h21.47V427H400.46Z"/><path class="cls-35" d="M352.44,452.92c-.16,2.59-.33,5.22-.5,7.95l19.11-1.71c.15,5.3.29,10.44.44,15.64-1.08.11-2.08.24-3.08.31-4.47.3-9,.56-13.42.86-5,.34-10.06.72-15.09,1a2,2,0,0,1-1.24-.33c-3.05-2.18-6.09-4.37-9.08-6.63a2,2,0,0,1-.66-1.38c-.13-3.61-.19-7.23-.26-10.84q-.26-13.53-.5-27.05c-.06-3.62-.17-7.23-.21-10.85a1.52,1.52,0,0,1,.52-1.12c2.42-1.78,4.89-3.51,7.35-5.24a1.61,1.61,0,0,1,.87-.31c3.71-.16,7.43-.29,11.14-.43,6.7-.25,13.39-.51,20.09-.72a2.62,2.62,0,0,1,1.69.55c2.95,2.54,5.84,5.15,8.73,7.77a1.56,1.56,0,0,1,.5,1.05c-.07,3.44-.19,6.87-.31,10.31-.08,2.17-.22,4.34-.29,6.51-.09,2.88-.17,5.75-.2,8.63a2.62,2.62,0,0,1-1.13,2.41c-.87.59-1.59,1.4-2.47,2a4,4,0,0,1-1.93.61c-6.58.33-13.17.6-19.75.89A1.52,1.52,0,0,0,352.44,452.92Zm10-10V424H344.82c0,.39-.05.73-.05,1.07,0,5.62,0,11.24,0,16.86,0,1,.32,1.17,1.21,1.16,5.23-.06,10.46-.06,15.69-.08C361.88,443,362.12,442.94,362.43,442.92Z"/><path class="cls-35" d="M283.89,437.74a6.67,6.67,0,0,1-.2-1c-.15-3.68-.28-7.35-.44-11-.07-1.86-.15-3.71-.3-5.56a1,1,0,0,1,.7-1.2c1.23-.49,2.44-1,3.68-1.51a3.31,3.31,0,0,1,1.21-.2q11.91,0,23.82,0c3.86,0,7.72.09,11.58.14.35,0,.69,0,1.11,0v17.26l-14.75,1.16c0,2.29,0,4.49,0,6.69,0,2.49.05,5,.08,7.48.07,5.33.12,10.67.23,16a2.47,2.47,0,0,1-.82,2,21.62,21.62,0,0,0-1.74,1.84,4.27,4.27,0,0,1-3.28,1.73,54.21,54.21,0,0,0-5.48.75,6.1,6.1,0,0,1-1,0v-35.7Z"/><path d="M493.51,453.58c0,.11,0,.22,0,.33l-.14-.08-.43.26-3.78,2.19a.85.85,0,0,1-.43.12l-.78.06-1.43.11-1.17.08-1.43.11-1.13.08-1.4.11-1.22.08-1.34.11-1.22.08-1.44.11-1.2.08-1.38.11-1.14.08-1.44.11-1.16.08-1.46.11-1.16.08-1.46.11-1.18.08-1.4.11-1.46.1c-.64,0-1.27.1-1.9.15l-1.09.07-.46,0c-.37,0-.75.07-1.13.09l-1.18.08-1.46.12-1.18.08-1.36.1-1.2.09-1.5.11-.57.06-.79,0-.13-.21-1.35-2.31c-.05-.08-.09-.16-.22-.11,0-.37-.07-.72-.09-1.07-.05-.63-.09-1.25-.14-1.88s-.11-1.43-.17-2.14c0-.2,0-.4,0-.6s-.06-.6-.08-.91-.06-.9-.1-1.36-.1-1-.14-1.56-.09-1.21-.13-1.82-.11-1.44-.17-2.16-.1-1.28-.14-1.92l0-.47-.15-1.59c0-.33,0-.66-.07-1s-.08-.88-.11-1.32c-.05-.64-.09-1.29-.14-1.93,0-.2,0-.39,0-.58s-.06-.63-.08-.95-.05-.62-.07-.93-.08-.8-.11-1.2-.05-.73-.09-1.1-.07-.79-.11-1.19,0-.75-.09-1.13c0,0,0,0-.06-.05s0-.31,0-.46a.92.92,0,0,0,.25-.09c.14-.08.26-.2.4-.29l1.31-.83,1.08-.72,1.29-.83a1.23,1.23,0,0,1,.38-.19c.37-.05.74-.07,1.11-.1l1.18-.08.45,0,1.86-.15,1-.08,1.13-.1,2.06-.15,1.61-.11,1.07-.08,1.32-.11,1.2-.08,1.32-.1,1.09-.09,1.28-.1,1.42-.09,1.83-.16,1.59-.12,1.84-.13,1.5-.11,2-.15,2.25-.18,1.61-.12,1.73-.13,1.77-.13,1.92-.14,1.26-.1,1.59-.1a.38.38,0,0,0,.3-.08l.71,0c.1.18.2.36.31.54l1.23,2.06a.32.32,0,0,1,.07.19c0,.18,0,.36.05.53,0,.7.11,1.4.17,2.11s.1,1.47.16,2.2l.15,1.86c0,.54.09,1.08.13,1.62l0,.64.15,1.8c0,.36.05.72.08,1.09s.07.89.11,1.34.05.78.08,1.18.07.9.1,1.36.05.68.08,1,.07.78.1,1.17.06.74.08,1.11c0,.11,0,.22,0,.33,0,.62.11,1.24.16,1.85,0,.39.05.79.08,1.18s.07.91.1,1.36.05.7.08,1.05c0,.13,0,.27,0,.4l.09,1.09.09,1.23c0,.4.06.79.1,1.18Zm-23.8-14.16-16.86-12.23c0,.06,0,.09,0,.11q.38,14.4.74,28.8v0l0,0,3.23-2.6,3.23-2.6,3.24-2.61,3.22-2.6c1.08-.86,2.15-1.74,3.27-2.62.05,2.14.1,4.24.16,6.33s.1,4.18.16,6.29c.21-.1,18.43-14.79,18.57-15l-19.31-14c0,.65,0,1.24.05,1.84s0,1.19,0,1.78,0,1.21,0,1.81,0,1.2.05,1.8,0,1.21,0,1.81,0,1.19.05,1.78S469.7,438.78,469.71,439.42Z"/><path class="cls-35" d="M439,403.53h38.47c-.4-2.94-.76-5.65-1.15-8.49-3,.13-5.8.23-8.61.4-2.09.12-4.18.39-6.27.5-5.77.32-11.56.41-17.31,1a7.05,7.05,0,0,1-5.46-1.69,7.62,7.62,0,0,0-1.91-1.26c-2.41-.94-2.64-2.91-2.7-5.1-.19-7.12-.45-14.25-.7-21.37-.12-3.25-.26-6.5-.45-9.75a1.46,1.46,0,0,1,1.13-1.67c4.36-1.62,8.71-3.29,13.08-4.89a5.87,5.87,0,0,1,2-.3q12.44,0,24.87,0a3.24,3.24,0,0,1,1.7.55c1.77,1.22,3.51,2.49,5.18,3.85a1.71,1.71,0,0,1,.47,1.51q-2.43,6.56-5.05,13a1.67,1.67,0,0,1-1.25.82c-4.25-.17-8.5-.41-12.74-.65-2-.11-4.1-.34-6.15-.39-2.8-.07-5.61,0-8.53,0q-.36,5-.77,10.65h1.8c12.65,0,25.3-.07,37.95-.15a2.74,2.74,0,0,1,2.44,1.13c1.36,1.73,2.9,3.31,4.27,5a3.54,3.54,0,0,1,.81,2c0,7-.15,14.09-.27,21.13a3.2,3.2,0,0,1-.37,1.34c-.95,1.87-1.92,3.73-3,5.55a1.92,1.92,0,0,1-1.23.94c-3.58.27-7.16.4-10.73.63-5.29.35-10.57.76-15.86,1.12-3.33.22-6.67.41-10,.59-2.38.13-4.77.25-7.16.3a2.26,2.26,0,0,1-1.49-.51c-1.71-1.73-3.34-3.54-5-5.32Z"/><path class="cls-35" d="M427.9,406.85c-4.8.59-9.42,1.15-14,1.75-4.85.63-9.68,1.32-14.53,2-3.06.41-6.12.81-9.19,1.15a2,2,0,0,1-1.27-.45q-4.62-3.75-9.19-7.57a2.1,2.1,0,0,1-.61-1.2,23.19,23.19,0,0,1-.25-3c-.11-5.27-.18-10.53-.3-15.8q-.25-10.9-.59-21.81a2.65,2.65,0,0,1,1.1-2.44c2.23-1.72,4.37-3.56,6.61-5.28a3.63,3.63,0,0,1,1.94-.67c8.45-.42,16.91-.79,25.36-1.16,2-.08,3.93-.12,5.89-.09a2.1,2.1,0,0,1,1.19.66c2.88,2.87,5.76,5.76,8.58,8.69a2.7,2.7,0,0,1,.69,1.74c-.23,8.13-.54,16.26-.79,24.39-.14,4.54-.2,9.09-.33,13.63C428.13,403.13,428,404.89,427.9,406.85Zm-15.66-41H394.05v31.54h18.19Z"/><path class="cls-35" d="M329.05,389.34c0-9.12,0-18.23,0-27.34a2.86,2.86,0,0,1,1.21-2.4,14.66,14.66,0,0,1,10.57-3.67c7.36.14,14.73-.44,22.09-.76a3.56,3.56,0,0,1,3.05,1.15c2.63,2.81,5.42,5.48,8.07,8.29a3,3,0,0,1,.7,2c-.13,4.64-.34,9.28-.58,13.92q-.54,10.37-1.18,20.72a1.92,1.92,0,0,1-.86,1.15c-3.37,2.26-7.12,3-11.13,3.11s-8.07.71-12.1,1.05c-2.95.25-5.91.47-8.86.62a2.5,2.5,0,0,1-1.54-.53c-2.76-2.08-5.52-4.18-8.19-6.38a2.82,2.82,0,0,1-.89-1.91c-.1-3,0-6,0-9Zm28.36,6.81V366.66H344.63v29.49Z"/><path class="cls-35" d="M316.13,384.21c3.24,1,6.11,2,9,2.72,1.08.28,1.35.87,1.22,2-.41,3.59-.85,7.18-1.27,10.78-.25,2.1-.43,4.22-.77,6.3a2.65,2.65,0,0,1-1,1.72c-3.55,1.76-7.12,3.17-11.09,3.31-5.43.19-10.84,1-16.25,1.57-2.47.25-4.94.52-7.42.65a2.5,2.5,0,0,1-1.56-.82c-2.15-2.1-2.59-4.82-2.58-8.07.06-13.29-.11-26.58-.25-39.87a2.44,2.44,0,0,1,1.44-2.64,66.71,66.71,0,0,0,7-3.79,6.62,6.62,0,0,1,5.61-.72c6.84,1.73,13.71,3.36,20.57,5a1.47,1.47,0,0,1,1.33,1.57c.22,3.52.55,7,.78,10.55.16,2.24.14,4.49.37,6.72.11,1.06-.23,1.41-.95,1.65Zm-21.61,17.88h17.34v-10H294.52Zm0-23.51h13.73v-9.85H294.54Z"/><polygon class="cls-36" points="372.78 494.02 372.78 352.36 449.61 423.19 372.78 494.02"/></g></g></svg>