<svg xmlns="http://www.w3.org/2000/svg" xmlns:xlink="http://www.w3.org/1999/xlink" viewBox="0 0 800 800"><defs><style>.cls-1{isolation:isolate;}.cls-2,.cls-8{fill:#6d6d6d;}.cls-3{fill:url(#radial-gradient);}.cls-4{fill:url(#radial-gradient-2);}.cls-5{fill:url(#linear-gradient);}.cls-6{opacity:0.5;mix-blend-mode:multiply;fill:url(#radial-gradient-3);}.cls-7{fill:url(#linear-gradient-2);}.cls-8{opacity:0.4;}.cls-9{fill:url(#linear-gradient-3);}.cls-10{fill:url(#linear-gradient-4);}.cls-11{fill:#c1272d;}.cls-12{fill:url(#Naamloos_verloop_2);}.cls-13{fill:url(#linear-gradient-5);}.cls-14{fill:url(#linear-gradient-6);}.cls-15,.cls-21,.cls-24,.cls-28,.cls-31{opacity:0.7;}.cls-16{fill:gray;}.cls-17{fill:#b3b3b3;}.cls-18{fill:url(#linear-gradient-7);}.cls-19{fill:#141615;opacity:0.2;}.cls-20{fill:url(#linear-gradient-8);}.cls-21{fill:url(#linear-gradient-9);}.cls-22{fill:url(#linear-gradient-10);}.cls-23{fill:url(#linear-gradient-11);}.cls-24{fill:url(#linear-gradient-12);}.cls-25{fill:url(#linear-gradient-13);}.cls-26{fill:url(#linear-gradient-14);}.cls-27{fill:url(#linear-gradient-15);}.cls-28{fill:url(#linear-gradient-16);}.cls-29{fill:url(#linear-gradient-17);}.cls-30{fill:url(#linear-gradient-18);}.cls-31{fill:url(#linear-gradient-19);}.cls-32{fill:url(#linear-gradient-20);}.cls-33{opacity:0.8;}.cls-34{fill:url(#linear-gradient-21);}.cls-35{fill-rule:evenodd;}.cls-36{fill:#fff;opacity:0.93;}</style><radialGradient id="radial-gradient" cx="302.47" cy="162.34" r="7.51" gradientUnits="userSpaceOnUse"><stop offset="0" stop-color="#d7d7d7"/><stop offset="1" stop-color="#969696"/></radialGradient><radialGradient id="radial-gradient-2" cx="66.94" cy="181.14" r="7.51" gradientTransform="matrix(-1, 0, 0, 1, 501.21, 0)" xlink:href="#radial-gradient"/><linearGradient id="linear-gradient" x1="377.5" y1="288.93" x2="377.5" y2="231.5" gradientUnits="userSpaceOnUse"><stop offset="0" stop-color="#2e302f"/><stop offset="1" stop-color="#1c1e1d"/></linearGradient><radialGradient id="radial-gradient-3" cx="-17710.33" cy="-28931.08" r="1598.55" gradientTransform="translate(2991 864.43) scale(0.15 0.01)" gradientUnits="userSpaceOnUse"><stop offset="0" stop-color="#666"/><stop offset="0.16" stop-color="#707070" stop-opacity="0.93"/><stop offset="0.4" stop-color="#8a8a8a" stop-opacity="0.74"/><stop offset="0.69" stop-color="#b6b6b6" stop-opacity="0.43"/><stop offset="1" stop-color="#f2f2f2" stop-opacity="0"/></radialGradient><linearGradient id="linear-gradient-2" x1="282.36" y1="622.33" x2="282.36" y2="572.46" xlink:href="#radial-gradient"/><linearGradient id="linear-gradient-3" x1="154.79" y1="622.33" x2="154.79" y2="572.46" gradientTransform="matrix(-1, 0, 0, 1, 695.33, 0)" xlink:href="#radial-gradient"/><linearGradient id="linear-gradient-4" x1="409" y1="589.51" x2="409" y2="535.46" xlink:href="#linear-gradient"/><linearGradient id="Naamloos_verloop_2" x1="417.28" y1="246.62" x2="400.28" y2="569.62" gradientUnits="userSpaceOnUse"><stop offset="0" stop-color="#ff6818"/><stop offset="1" stop-color="#e11f00"/></linearGradient><linearGradient id="linear-gradient-5" x1="408.84" y1="285.15" x2="408.84" y2="532.15" gradientUnits="userSpaceOnUse"><stop offset="0" stop-color="#141615"/><stop offset="1" stop-color="#5b5c5b"/></linearGradient><linearGradient id="linear-gradient-6" x1="408.84" y1="287.15" x2="408.84" y2="538.2" xlink:href="#linear-gradient"/><linearGradient id="linear-gradient-7" x1="559.57" y1="297.15" x2="559.57" y2="560.15" xlink:href="#radial-gradient"/><linearGradient id="linear-gradient-8" x1="447.48" y1="500.25" x2="490.05" y2="500.25" gradientTransform="translate(-66.1 163.6) rotate(-22.87)" xlink:href="#linear-gradient"/><linearGradient id="linear-gradient-9" x1="449.95" y1="477.68" x2="488.93" y2="524.45" gradientTransform="translate(-66.1 163.6) rotate(-22.87)" xlink:href="#radial-gradient"/><linearGradient id="linear-gradient-10" x1="454.21" y1="482.79" x2="484.36" y2="518.97" gradientTransform="translate(-66.1 163.6) rotate(-22.87)" xlink:href="#linear-gradient"/><linearGradient id="linear-gradient-11" x1="469.51" y1="478.96" x2="469.51" y2="522.05" gradientTransform="matrix(1, 0, 0, 1, 91.06, -58.11)" gradientUnits="userSpaceOnUse"><stop offset="0" stop-color="#fbfbfb"/><stop offset="1" stop-color="#969696"/></linearGradient><linearGradient id="linear-gradient-12" x1="447.49" y1="501.07" x2="466.16" y2="501.07" gradientTransform="translate(-66.1 163.6) rotate(-22.87)" gradientUnits="userSpaceOnUse"><stop offset="0" stop-color="#2e302f" stop-opacity="0"/><stop offset="1" stop-color="#1c1e1d"/></linearGradient><linearGradient id="linear-gradient-13" x1="550.8" y1="453.19" x2="570.3" y2="453.19" xlink:href="#Naamloos_verloop_2"/><linearGradient id="linear-gradient-14" x1="550.81" y1="429.15" x2="570.3" y2="429.15" xlink:href="#Naamloos_verloop_2"/><linearGradient id="linear-gradient-15" x1="271.76" y1="556.68" x2="316.72" y2="556.68" gradientTransform="translate(-63.8 419.59) rotate(-55.49)" xlink:href="#linear-gradient"/><linearGradient id="linear-gradient-16" x1="274.37" y1="532.84" x2="315.53" y2="582.24" gradientTransform="translate(-63.8 419.59) rotate(-55.49)" xlink:href="#radial-gradient"/><linearGradient id="linear-gradient-17" x1="278.87" y1="538.24" x2="310.71" y2="576.45" gradientTransform="translate(-63.8 419.59) rotate(-55.49)" xlink:href="#linear-gradient"/><linearGradient id="linear-gradient-18" x1="295.03" y1="534.2" x2="295.03" y2="579.7" gradientTransform="translate(266.22 -64.35)" xlink:href="#linear-gradient-11"/><linearGradient id="linear-gradient-19" x1="271.77" y1="557.55" x2="291.49" y2="557.55" gradientTransform="translate(-63.8 419.59) rotate(-55.49)" xlink:href="#linear-gradient-12"/><linearGradient id="linear-gradient-20" x1="294.51" y1="344.14" x2="474.55" y2="524.18" gradientUnits="userSpaceOnUse"><stop offset="0" stop-color="#707e67"/><stop offset="1" stop-color="#9dad93"/></linearGradient><linearGradient id="linear-gradient-21" x1="369.79" y1="460.34" x2="369.79" y2="302.99" gradientUnits="userSpaceOnUse"><stop offset="0" stop-color="#fbfbfb" stop-opacity="0.5"/><stop offset="1" stop-color="#fbfbfb" stop-opacity="0"/></linearGradient></defs><g class="cls-1"><g id="object"><polygon class="cls-2" points="358.03 241.23 349.23 245.98 299.04 159.93 302.94 157.63 358.03 241.23"/><path class="cls-3" d="M310,162.35a7.51,7.51,0,1,1-7.51-7.51A7.5,7.5,0,0,1,310,162.35Z"/><polygon class="cls-2" points="378.71 260.02 387.5 264.77 437.7 178.72 433.8 176.42 378.71 260.02"/><path class="cls-4" d="M426.76,181.14a7.51,7.51,0,1,0,7.51-7.51A7.5,7.5,0,0,0,426.76,181.14Z"/><path class="cls-5" d="M419.58,257.12c0,13.31-18.84,24.1-42.08,24.1s-42.07-10.79-42.07-24.1S354.26,233,377.5,233,419.58,243.81,419.58,257.12Z"/><path class="cls-6" d="M641.12,615.62c0-7.62-104-13.79-232.28-13.79S176.56,608,176.56,615.62s104,13.79,232.28,13.79S641.12,623.24,641.12,615.62Z"/><polygon class="cls-7" points="284.41 613.34 269.29 613.34 274.19 571.67 295.44 571.67 284.41 613.34"/><polygon class="cls-8" points="284.41 613.34 279.1 613.34 286.45 571.67 295.44 571.67 284.41 613.34"/><polygon class="cls-9" points="538.5 613.34 553.62 613.34 548.72 571.67 527.47 571.67 538.5 613.34"/><polygon class="cls-8" points="538.5 613.34 543.81 613.34 536.46 571.67 527.47 571.67 538.5 613.34"/><path class="cls-10" d="M251.64,556.15c-.08.6-.14,13.22-.14,13.85,0,6.76,5,12.25,11.09,12.25H555.41c6.12,0,11.09-5.49,11.09-12.25,0-.63,0-13.25-.14-13.85Z"/><path class="cls-11" d="M625.34,510.25c-5.67,29.16-24.57,48.46-53.79,53.79-44,8-129.74,12.33-173.13,12.14-38.62-.16-116.08-3.55-154-12.14-29-6.56-49.38-24.41-53.79-53.79-3.87-25.82-5.41-76.51-5.2-102.06.16-20.18,1.9-60.88,5.2-80.55,4.92-29.3,24.6-48.28,53.79-53.79C286.33,265.94,357.2,260.22,395,260c44.28-.3,132.58,3.69,176.55,13.88,28.94,6.7,48.34,24.59,53.79,53.79,4.09,21.94,6.9,67.17,6.94,89.65C632.32,440.6,630.57,483.3,625.34,510.25Z"/><path class="cls-12" d="M625.34,502.35c-5.67,29.16-24.57,48.46-53.79,53.79-44,8-129.74,12.34-173.13,12.15-38.62-.17-116.08-3.56-154-12.15-29-6.56-49.38-24.41-53.79-53.79-3.87-25.81-5.41-76.51-5.2-102.06.15-20.18,1.9-60.88,5.2-80.55,4.92-29.3,24.6-48.28,53.79-53.79C286.33,258,357.2,252.32,395,252.07c44.28-.3,132.58,3.69,176.55,13.88,28.94,6.71,48.34,24.59,53.79,53.79,4.09,21.94,6.9,67.17,6.94,89.65C632.32,432.7,630.57,475.4,625.34,502.35Z"/><path d="M398.46,567.51c-39.2-.17-115.17-3.56-152.13-11.93-19-4.3-42.52-15.87-47.13-46.62-3.66-24.42-5.32-74.17-5.11-100.7.17-21.51,2-61,5.09-79.18,4.23-25.22,20.87-41.81,46.84-46.71,41.23-7.78,111.64-13.48,149-13.73h4.68c46,0,129.14,4.24,169.85,13.67,26.67,6.18,42.56,22,47.22,46.93,4.1,21.94,6.76,66.82,6.79,88.08,0,19.33-1.34,63.3-6.78,91.28-5.05,26-21.25,42.25-46.83,46.91-43,7.84-125.62,12-168.79,12Z"/><path class="cls-13" d="M398.46,564c-39-.17-114.66-3.54-151.36-11.85-17.9-4.05-40.15-14.93-44.47-43.74-3.63-24.25-5.28-73.75-5.07-100.17.17-21.38,2-60.61,5-78.63,4-23.68,19.62-39.25,44.07-43.87,41.05-7.74,111.16-13.42,148.42-13.67h4.65c45.86,0,128.63,4.21,169.07,13.58,25.2,5.84,40.21,20.71,44.59,44.19,4.06,21.75,6.7,66.31,6.73,87.44,0,19.23-1.33,62.91-6.72,90.62-4.75,24.5-20,39.77-44,44.16C526.62,559.89,444.24,564,401.2,564Z"/><path class="cls-14" d="M398.48,553.37c-38.56-.16-113.16-3.46-149-11.58-21.31-4.83-33.52-16.58-36.27-34.93-3.55-23.7-5.16-72.43-5-98.49.16-21,2-59.48,4.89-76.95,3.23-19.22,15.51-31.38,35.53-35.16,40.5-7.64,109.72-13.24,146.51-13.48l4.58,0c45.35,0,127,4.13,166.66,13.31,21,4.87,32.93,16.56,36.51,35.76,4,21.16,6.52,64.77,6.56,85.5,0,18.86-1.3,61.65-6.53,88.57C599,526,587.1,538,567.45,541.59c-42.12,7.69-123.59,11.79-166.23,11.79Z"/><g class="cls-15"><rect class="cls-16" x="538.09" y="314.98" width="42.97" height="3.74"/><rect class="cls-16" x="538.09" y="322.32" width="42.97" height="3.74"/><rect class="cls-17" x="538.09" y="329.67" width="42.97" height="3.74"/><rect class="cls-16" x="538.09" y="337.01" width="42.97" height="3.74"/><rect class="cls-16" x="538.09" y="344.36" width="42.97" height="3.74"/><rect class="cls-17" x="538.09" y="351.7" width="42.97" height="3.74"/><rect class="cls-16" x="538.09" y="359.05" width="42.97" height="3.74"/><rect class="cls-17" x="538.09" y="366.39" width="42.97" height="3.74"/><rect class="cls-16" x="538.09" y="373.74" width="42.97" height="3.74"/><rect class="cls-17" x="538.09" y="381.08" width="42.97" height="3.74"/><rect class="cls-16" x="538.09" y="388.43" width="42.97" height="3.74"/><rect class="cls-16" x="538.09" y="395.78" width="42.97" height="3.74"/><rect class="cls-17" x="538.09" y="405.34" width="42.97" height="5.61"/></g><g class="cls-15"><path class="cls-18" d="M582.48,523.13H536.67a7.44,7.44,0,0,1-7.46-7.4V311a7.45,7.45,0,0,1,7.46-7.41h45.81a7.45,7.45,0,0,1,7.46,7.41V515.73A7.44,7.44,0,0,1,582.48,523.13ZM536.67,304.79a6.25,6.25,0,0,0-6.26,6.21V515.73a6.25,6.25,0,0,0,6.26,6.21h45.81a6.24,6.24,0,0,0,6.25-6.21V311a6.24,6.24,0,0,0-6.25-6.21Z"/></g><path class="cls-19" d="M578.55,437.19a21.29,21.29,0,1,1-27.89-11.34A21.3,21.3,0,0,1,578.55,437.19Z"/><path class="cls-20" d="M579.83,434.1a21.29,21.29,0,1,1-27.89-11.35A21.28,21.28,0,0,1,579.83,434.1Z"/><path class="cls-2" d="M577.07,435.26a18.29,18.29,0,1,1-24-9.75A18.29,18.29,0,0,1,577.07,435.26Z"/><path class="cls-21" d="M574.85,436.19A15.89,15.89,0,1,1,554,427.73,15.89,15.89,0,0,1,574.85,436.19Z"/><path class="cls-22" d="M571.54,437.59a12.29,12.29,0,1,1-16.1-6.55A12.29,12.29,0,0,1,571.54,437.59Z"/><rect class="cls-23" x="557.18" y="424.16" width="6.75" height="34.18" transform="translate(-127.42 252.53) rotate(-22.87)"/><path class="cls-24" d="M550.81,426.81l-9.94,24.43a21.31,21.31,0,0,0,19.37,12.42l3.17-7Z"/><path class="cls-25" d="M560.73,450.34l3.36,8,6.21-2.63-3.21-7.61C565,448.85,562.86,449.62,560.73,450.34Z"/><path class="cls-26" d="M560.36,432.11,557,424.19l-6.21,2.62,3.07,7.3C556,433.41,558.19,432.73,560.36,432.11Z"/><path class="cls-19" d="M570.26,477.51A22.48,22.48,0,1,1,539,483.3,22.49,22.49,0,0,1,570.26,477.51Z"/><path class="cls-27" d="M574.37,474a22.48,22.48,0,1,1-31.27,5.78A22.47,22.47,0,0,1,574.37,474Z"/><path class="cls-2" d="M572.57,476.64a19.32,19.32,0,1,1-26.86,5A19.31,19.31,0,0,1,572.57,476.64Z"/><path class="cls-28" d="M571.14,478.73a16.78,16.78,0,1,1-23.34,4.32A16.79,16.79,0,0,1,571.14,478.73Z"/><path class="cls-29" d="M569,481.86a13,13,0,1,1-18.05,3.34A13,13,0,0,1,569,481.86Z"/><rect class="cls-30" x="557.73" y="473.32" width="7.12" height="36.1" transform="translate(-161.63 675.41) rotate(-55.48)"/><path class="cls-31" d="M544.4,484.08l5.07,27.38a22.5,22.5,0,0,0,24.3,0l-1.16-8Z"/><path class="cls-32" d="M505.25,488.16c0,24.25-12.75,43-56.93,43.91H282.25c-29.75-.92-47.92-19.66-47.92-43.91V357.9c.17-40.75,23.19-50.92,41.92-50.92H455.32c32.18.17,49.93,19.67,49.93,43.92Z"/><g class="cls-33"><path class="cls-34" d="M499.23,442.67V354c0-23.18-17-41.81-47.71-42H280.41c-17.91,0-39.9,9.72-40.07,48.66v75.6C317.5,391.15,473.5,411.15,499.23,442.67Z"/></g><path class="cls-35" d="M370.32,485.29c-.08-2.63-.2-5.26-.25-7.89-.14-7-.24-14-.37-21.07q-.3-16.95-.63-33.91c-.05-2.63-.07-2.64,2.3-3.69,3.37-1.51,6.72-3.09,10.15-4.47a11.71,11.71,0,0,1,3.88-.66c7.89-.33,15.78-.58,23.67-.86,2.07-.07,4.14-.16,6.21-.2a1.88,1.88,0,0,1,1,.37c1.93,1.52,3.85,3.06,5.74,4.63a2,2,0,0,1,.61,1.11q1.81,12.69,3.57,25.37c.29,2.15.56,4.31.87,6.46a1.53,1.53,0,0,1-.66,1.61q-3.7,2.88-7.31,5.86a4.59,4.59,0,0,1-2.86.82c-.58.05-1.17,0-1.89,0a2.29,2.29,0,0,0,.23.52L430.34,474a1.2,1.2,0,0,0,.27.16v.42c-.22.1-.45.18-.66.3-4.94,2.8-9.89,5.57-14.8,8.41a4.51,4.51,0,0,1-2.69.61c-1.08-.08-2.17-.09-3.25-.23a2.32,2.32,0,0,1-1.36-.59c-4-4.83-8-9.69-12-14.54-.78-1-1.59-1.9-2.47-2.95.16,5.57.31,10.95.47,16.35l-5.44.78c-3.22.46-6.43.92-9.64,1.4-2.61.39-5.23.81-7.84,1.21Zm15.37-36.79h21.46V427H385.69Z"/><path class="cls-35" d="M337.66,452.92c-.16,2.59-.32,5.22-.49,7.95l19.11-1.71c.15,5.3.29,10.44.44,15.64-1.09.11-2.08.24-3.08.31-4.48.3-8.95.56-13.42.86-5,.34-10.06.72-15.09,1a2,2,0,0,1-1.24-.33c-3.06-2.18-6.09-4.37-9.09-6.63a2,2,0,0,1-.65-1.38c-.13-3.61-.19-7.23-.26-10.84q-.25-13.53-.5-27.05c-.07-3.62-.18-7.23-.22-10.85a1.6,1.6,0,0,1,.52-1.12c2.43-1.78,4.89-3.51,7.36-5.24a1.61,1.61,0,0,1,.86-.31c3.72-.16,7.43-.29,11.15-.43,6.69-.25,13.39-.51,20.08-.72a2.63,2.63,0,0,1,1.7.55c2.94,2.54,5.84,5.15,8.72,7.77a1.62,1.62,0,0,1,.51,1.05c-.08,3.44-.19,6.87-.32,10.31-.08,2.17-.21,4.34-.28,6.51-.09,2.88-.17,5.75-.21,8.63a2.6,2.6,0,0,1-1.13,2.41c-.87.59-1.58,1.4-2.46,2a4,4,0,0,1-1.93.61c-6.59.33-13.17.6-19.76.89A1.76,1.76,0,0,0,337.66,452.92Zm10-10V424H330c0,.39,0,.73,0,1.07,0,5.62,0,11.24,0,16.86,0,1,.32,1.17,1.21,1.16,5.23-.06,10.47-.06,15.7-.08C347.11,443,347.35,442.94,347.66,442.92Z"/><path class="cls-35" d="M269.11,437.74a8.11,8.11,0,0,1-.2-1c-.15-3.68-.28-7.35-.43-11-.08-1.86-.16-3.71-.31-5.56a1,1,0,0,1,.7-1.2c1.23-.49,2.44-1,3.68-1.51a3.36,3.36,0,0,1,1.22-.2q11.91,0,23.81,0c3.86,0,7.72.09,11.58.14.35,0,.7,0,1.12,0v17.26l-14.76,1.16c0,2.29,0,4.49,0,6.69,0,2.49.05,5,.08,7.48.07,5.33.13,10.67.23,16a2.44,2.44,0,0,1-.82,2,23.33,23.33,0,0,0-1.74,1.84,4.25,4.25,0,0,1-3.28,1.73,54.21,54.21,0,0,0-5.48.75,6.08,6.08,0,0,1-1,0v-35.7Z"/><path d="M478.73,453.58c0,.11,0,.22,0,.33l-.14-.08-.43.26-3.78,2.19a.8.8,0,0,1-.43.12l-.78.06-1.42.11-1.18.08-1.42.11-1.14.08-1.4.11-1.22.08-1.34.11-1.21.08-1.45.11-1.2.08-1.38.11-1.13.08-1.45.11-1.15.08-1.47.11-1.15.08-1.46.11-1.18.08-1.4.11-1.47.1-1.89.15-1.1.07-.45,0-1.14.09-1.17.08-1.47.12-1.17.08-1.36.1-1.2.09-1.51.11-.57.06-.79,0-.13-.21-1.35-2.31c-.05-.08-.09-.16-.22-.11,0-.37-.06-.72-.09-1.07,0-.63-.08-1.25-.13-1.88l-.18-2.14c0-.2,0-.4,0-.6l-.09-.91-.09-1.36c-.05-.52-.1-1-.14-1.56s-.09-1.21-.14-1.82-.11-1.44-.17-2.16-.09-1.28-.14-1.92c0-.16,0-.32,0-.47,0-.53-.1-1.06-.14-1.59,0-.33-.05-.66-.08-1s-.07-.88-.11-1.32c0-.64-.09-1.29-.13-1.93l0-.58-.09-.95c0-.31,0-.62-.07-.93s-.07-.8-.11-1.2-.05-.73-.08-1.1-.08-.79-.11-1.19-.06-.75-.09-1.13c0,0,0,0-.06-.05s0-.31,0-.46a1,1,0,0,0,.24-.09c.14-.08.27-.2.41-.29l1.3-.83c.37-.23.72-.48,1.09-.72l1.28-.83a1.23,1.23,0,0,1,.38-.19c.37-.05.74-.07,1.11-.1l1.18-.08.46,0,1.85-.15,1-.08,1.13-.1,2.07-.15,1.6-.11,1.08-.08,1.32-.11,1.19-.08,1.32-.1,1.09-.09,1.28-.1,1.42-.09,1.84-.16,1.58-.12,1.84-.13,1.51-.11,2-.15c.75-.05,1.5-.12,2.24-.18l1.61-.12,1.73-.13,1.78-.13,1.91-.14,1.26-.1,1.59-.1c.11,0,.22,0,.3-.08l.71,0c.1.18.2.36.31.54L476.4,424a.54.54,0,0,1,.07.19c0,.18,0,.36,0,.53.06.7.12,1.4.17,2.11s.11,1.47.16,2.2l.15,1.86c.05.54.09,1.08.13,1.62,0,.22,0,.43,0,.64,0,.6.1,1.2.14,1.8,0,.36.06.72.08,1.09s.08.89.11,1.34.05.78.08,1.18.07.9.11,1.36.05.68.07,1,.08.78.11,1.17.05.74.08,1.11c0,.11,0,.22,0,.33l.15,1.85.09,1.18c0,.45.06.91.1,1.36s.05.7.07,1.05c0,.13,0,.27,0,.4,0,.36.07.72.1,1.09s.05.82.09,1.23l.09,1.18Zm-23.79-14.16-16.87-12.23a.59.59,0,0,0,0,.11q.36,14.4.74,28.8v0l0,0,3.24-2.6,3.22-2.6,3.24-2.61,3.23-2.6c1.08-.86,2.15-1.74,3.26-2.62.06,2.14.11,4.24.16,6.33s.11,4.18.16,6.29c.21-.1,18.43-14.79,18.57-15l-19.3-14c0,.65,0,1.24,0,1.84s0,1.19,0,1.78,0,1.21.05,1.81,0,1.2,0,1.8,0,1.21.05,1.81,0,1.19,0,1.78S454.92,438.78,454.94,439.42Z"/><path class="cls-35" d="M424.17,403.53h38.48c-.4-2.94-.77-5.65-1.16-8.49-3,.13-5.8.23-8.6.4-2.1.12-4.18.39-6.28.5-5.77.32-11.56.41-17.31,1a7.05,7.05,0,0,1-5.46-1.69,7.75,7.75,0,0,0-1.9-1.26c-2.42-.94-2.65-2.91-2.71-5.1-.19-7.12-.45-14.25-.7-21.37-.12-3.25-.26-6.5-.45-9.75a1.47,1.47,0,0,1,1.13-1.67c4.37-1.62,8.72-3.29,13.08-4.89a5.91,5.91,0,0,1,2-.3q12.44,0,24.87,0a3.3,3.3,0,0,1,1.71.55c1.76,1.22,3.51,2.49,5.18,3.85a1.71,1.71,0,0,1,.46,1.51q-2.43,6.56-5.05,13a1.65,1.65,0,0,1-1.25.82c-4.25-.17-8.49-.41-12.74-.65-2.05-.11-4.09-.34-6.14-.39-2.81-.07-5.61,0-8.54,0q-.36,5-.77,10.65h1.8c12.66,0,25.31-.07,38-.15a2.74,2.74,0,0,1,2.43,1.13c1.37,1.73,2.91,3.31,4.28,5a3.6,3.6,0,0,1,.8,2c0,7-.15,14.09-.27,21.13a3.19,3.19,0,0,1-.36,1.34c-1,1.87-1.92,3.73-3,5.55a1.9,1.9,0,0,1-1.23.94c-3.57.27-7.15.4-10.73.63-5.28.35-10.56.76-15.85,1.12-3.34.22-6.67.41-10,.59-2.39.13-4.78.25-7.16.3a2.29,2.29,0,0,1-1.5-.51c-1.71-1.73-3.34-3.54-5-5.32Z"/><path class="cls-35" d="M413.13,406.85c-4.8.59-9.42,1.15-14,1.75-4.85.63-9.69,1.32-14.54,2-3.05.41-6.11.81-9.18,1.15a2,2,0,0,1-1.27-.45q-4.64-3.75-9.2-7.57a2,2,0,0,1-.6-1.2,23.19,23.19,0,0,1-.25-3c-.12-5.27-.18-10.53-.31-15.8q-.25-10.9-.59-21.81a2.67,2.67,0,0,1,1.1-2.44c2.24-1.72,4.38-3.56,6.61-5.28a3.63,3.63,0,0,1,1.95-.67c8.45-.42,16.9-.79,25.36-1.16,2-.08,3.92-.12,5.88-.09a2,2,0,0,1,1.19.66c2.89,2.87,5.76,5.76,8.58,8.69a2.71,2.71,0,0,1,.7,1.74c-.23,8.13-.54,16.26-.8,24.39-.14,4.54-.2,9.09-.33,13.63C413.35,403.13,413.23,404.89,413.13,406.85Zm-15.66-41H379.28v31.54h18.19Z"/><path class="cls-35" d="M314.27,389.34c0-9.12,0-18.23,0-27.34a2.84,2.84,0,0,1,1.21-2.4A14.64,14.64,0,0,1,326,355.93c7.35.14,14.72-.44,22.08-.76a3.56,3.56,0,0,1,3.05,1.15c2.64,2.81,5.42,5.48,8.07,8.29a3,3,0,0,1,.71,2q-.21,7-.59,13.92-.53,10.37-1.18,20.72a1.87,1.87,0,0,1-.85,1.15c-3.37,2.26-7.13,3-11.13,3.11s-8.07.71-12.11,1.05c-2.95.25-5.9.47-8.86.62a2.54,2.54,0,0,1-1.54-.53c-2.76-2.08-5.51-4.18-8.19-6.38a2.86,2.86,0,0,1-.89-1.91c-.09-3,0-6,0-9Zm28.36,6.81V366.66H329.85v29.49Z"/><path class="cls-35" d="M301.35,384.21c3.25,1,6.11,2,9,2.72,1.08.28,1.35.87,1.23,2-.42,3.59-.86,7.18-1.28,10.78-.25,2.1-.43,4.22-.77,6.3a2.65,2.65,0,0,1-1,1.72c-3.54,1.76-7.11,3.17-11.09,3.31-5.42.19-10.83,1-16.25,1.57-2.47.25-4.94.52-7.42.65a2.5,2.5,0,0,1-1.56-.82c-2.15-2.1-2.59-4.82-2.57-8.07.05-13.29-.11-26.58-.25-39.87a2.42,2.42,0,0,1,1.44-2.64,67.72,67.72,0,0,0,7-3.79,6.59,6.59,0,0,1,5.6-.72c6.85,1.73,13.72,3.36,20.58,5a1.45,1.45,0,0,1,1.32,1.57c.23,3.52.55,7,.79,10.55.15,2.24.13,4.49.37,6.72.11,1.06-.23,1.41-.95,1.65Zm-21.61,17.88h17.34v-10H279.74Zm0-23.51h13.72v-9.85H279.77Z"/><polygon class="cls-36" points="358.01 494.02 358.01 352.36 428.83 423.19 358.01 494.02"/></g></g></svg>